<svg width="0" height="0"><symbol xmlns="http://www.w3.org/2000/svg" id="arrow right" fill="none" viewBox="0 0 24 24"><path fill="currentColor" d="M19.127 11.696a.867.867 0 0 0-.272-.625l-4.95-4.95c-.195-.188-.398-.27-.61-.27-.482 0-.828.338-.828.798a.83.83 0 0 0 .249.595L14.41 8.96l2.184 1.997-1.747-.106h-9.13c-.505 0-.851.347-.851.844 0 .49.346.836.851.836h9.13l1.748-.105-2.184 1.996-1.695 1.718a.83.83 0 0 0-.249.595c0 .46.346.799.829.799.21 0 .414-.083.595-.257l4.964-4.964a.863.863 0 0 0 .272-.618Z"/></symbol><symbol xmlns="http://www.w3.org/2000/svg" id="cart" fill="none" viewBox="0 0 30 30"><path fill="currentColor" d="M11.825 29.081a3.02 3.02 0 0 1-3.016-3.016 3.019 3.019 0 0 1 3.016-3.015 3.019 3.019 0 0 1 3.016 3.015 3.02 3.02 0 0 1-3.016 3.016Zm0-4.138a1.124 1.124 0 0 0 0 2.245 1.124 1.124 0 0 0 0-2.245Zm10.483 4.138a3.019 3.019 0 0 1-3.015-3.016 3.019 3.019 0 0 1 3.015-3.015 3.019 3.019 0 0 1 3.016 3.015 3.02 3.02 0 0 1-3.016 3.016Zm0-4.138a1.124 1.124 0 0 0 0 2.245 1.124 1.124 0 0 0 .794-1.916 1.124 1.124 0 0 0-.794-.33Zm2.208-4.23H9.648a3.067 3.067 0 0 1-3.005-2.396L3.558 4.842a.598.598 0 0 0-.33-.407L.668 3.248a1.183 1.183 0 0 1 .995-2.146l2.56 1.186a2.978 2.978 0 0 1 1.641 2.026L8.95 17.79a.713.713 0 0 0 .698.557h14.868a.715.715 0 0 0 .699-.554L27.614 7.47a.704.704 0 0 0-.136-.607.705.705 0 0 0-.562-.27H9.407a1.183 1.183 0 1 1 0-2.367h17.51c.945 0 1.825.425 2.413 1.165.589.74.803 1.694.589 2.615l-2.4 10.323a3.07 3.07 0 0 1-3.003 2.383Z"/></symbol><symbol xmlns="http://www.w3.org/2000/svg" id="catalog" fill="none" viewBox="0 0 24 24"><path fill="currentColor" d="M16.195 4.5H1.5a.75.75 0 0 1 0-1.5h14.695a.75.75 0 1 1 0 1.5ZM8.516 8.625H1.5a.75.75 0 0 1 0-1.5h7.016a.75.75 0 0 1 0 1.5Zm0 4.125H1.5a.75.75 0 1 1 0-1.5h7.016a.75.75 0 1 1 0 1.5Zm0 4.125H1.5a.75.75 0 1 1 0-1.5h7.016a.75.75 0 1 1 0 1.5ZM16.79 21H1.5a.75.75 0 1 1 0-1.5h15.289a.75.75 0 1 1 0 1.5Zm5.711-2.65a.745.745 0 0 1-.53-.22l-2.844-2.843a.75.75 0 1 1 1.06-1.061l2.844 2.844a.75.75 0 0 1-.53 1.28Z"/><path fill="currentColor" d="M16.195 16.936a5.621 5.621 0 0 1-3.992-1.65 5.611 5.611 0 0 1-1.653-3.991c0-1.508.588-2.925 1.653-3.992a5.606 5.606 0 0 1 3.992-1.653c1.508 0 2.925.587 3.991 1.653a5.604 5.604 0 0 1 1.654 3.992 5.605 5.605 0 0 1-1.654 3.991 5.632 5.632 0 0 1-3.991 1.65Zm0-9.786a4.113 4.113 0 0 0-2.93 1.215 4.121 4.121 0 0 0-1.215 2.93 4.116 4.116 0 0 0 1.215 2.93 4.15 4.15 0 0 0 6.762-1.343 4.118 4.118 0 0 0 .314-1.587 4.118 4.118 0 0 0-1.215-2.931 4.117 4.117 0 0 0-2.931-1.214Z"/></symbol><symbol xmlns="http://www.w3.org/2000/svg" id="check" fill="none" viewBox="0 0 30 30"><path fill="currentColor" fill-rule="evenodd" d="M25.768 7.061a1.251 1.251 0 0 1 .105 1.778L12.73 23.425a1.25 1.25 0 0 1-1.785.072L3.34 16.34a1.26 1.26 0 0 1 .763-2.169 1.262 1.262 0 0 1 .943.311l5.9 5.308a1.25 1.25 0 0 0 1.765-.093L24.015 7.163a1.25 1.25 0 0 1 1.753-.103v.001Z" clip-rule="evenodd"/></symbol><symbol xmlns="http://www.w3.org/2000/svg" id="close" fill="none" viewBox="0 0 30 30"><path fill="currentColor" fill-rule="evenodd" d="M6.25 21.983a1.25 1.25 0 0 0 1.77 1.767L15 16.767l6.983 6.983a1.25 1.25 0 0 0 1.767-1.767L16.768 15l6.982-6.982a1.25 1.25 0 0 0-1.769-1.768l-6.98 6.982L8.017 6.25A1.25 1.25 0 0 0 6.25 8.018L13.233 15 6.25 21.983Z" clip-rule="evenodd"/></symbol><symbol xmlns="http://www.w3.org/2000/svg" id="down" fill="none" viewBox="0 0 24 24"><path fill="currentColor" d="M3.468 9.713a.679.679 0 0 1 0-.95l.878-.891a.655.655 0 0 1 .936 0l8.166 8.287-1.346 1.366a.655.655 0 0 1-.936 0L3.468 9.713Z"/><path fill="currentColor" d="M19.865 9.65a.679.679 0 0 0 0-.95l-.878-.891a.655.655 0 0 0-.936 0l-8.166 8.287 1.347 1.367a.655.655 0 0 0 .936 0l7.697-7.813Z"/></symbol><symbol xmlns="http://www.w3.org/2000/svg" id="email" fill="none" viewBox="0 0 24 24"><path fill="currentColor" d="m12 11.107 9.585-6.157a2.25 2.25 0 0 0-1.335-.45H3.75a2.25 2.25 0 0 0-1.335.45L12 11.107Z"/><path fill="currentColor" d="m12.405 12.63-.127.06h-.06a.752.752 0 0 1-.405.06h-.06l-.128-.06-10.05-6.495a2.25 2.25 0 0 0-.075.555v10.5a2.25 2.25 0 0 0 2.25 2.25h16.5a2.25 2.25 0 0 0 2.25-2.25V6.75a2.251 2.251 0 0 0-.075-.555l-10.02 6.435Z"/></symbol><symbol xmlns="http://www.w3.org/2000/svg" id="first" fill="none" viewBox="0 0 21 12"><path fill="currentColor" d="m9.416.326-9.09 9.09c-.21.21-.326.49-.326.79 0 .299.116.58.326.79l.67.67a1.119 1.119 0 0 0 1.58 0l7.633-7.634 7.641 7.642c.21.21.49.326.79.326.3 0 .58-.116.79-.326l.67-.67c.21-.21.326-.49.326-.79 0-.3-.116-.58-.326-.79L11.001.326A1.11 1.11 0 0 0 10.209 0c-.3 0-.582.115-.793.326Z"/></symbol><symbol xmlns="http://www.w3.org/2000/svg" id="geoloc" fill="none" viewBox="0 0 24 24"><path fill="currentColor" d="M12 2a8.009 8.009 0 0 0-8 8c0 3.255 2.363 5.958 4.866 8.819.792.906 1.612 1.843 2.342 2.791a1 1 0 0 0 1.584 0c.73-.948 1.55-1.885 2.342-2.791C17.637 15.958 20 13.255 20 10a8.009 8.009 0 0 0-8-8Zm0 11a3 3 0 1 1 0-5.999A3 3 0 0 1 12 13Z"/></symbol><symbol xmlns="http://www.w3.org/2000/svg" id="left" fill="none" viewBox="0 0 24 24"><path fill="currentColor" d="M13.619 4.25a.679.679 0 0 1 .95 0l.891.877a.655.655 0 0 1 0 .936L7.173 14.23l-1.367-1.346a.655.655 0 0 1 0-.936l7.813-7.698Z"/><path fill="currentColor" d="M13.681 20.647a.679.679 0 0 0 .95 0l.892-.879a.655.655 0 0 0 0-.936l-8.288-8.165-1.366 1.346a.655.655 0 0 0 0 .936l7.812 7.698Z"/></symbol><symbol xmlns="http://www.w3.org/2000/svg" id="menu" fill="none" viewBox="0 0 24 24"><path fill="currentColor" d="M21 7H3c-.6 0-1-.4-1-1s.4-1 1-1h18c.6 0 1 .4 1 1s-.4 1-1 1Zm0 6H3c-.6 0-1-.4-1-1s.4-1 1-1h18c.6 0 1 .4 1 1s-.4 1-1 1Zm0 6H3c-.6 0-1-.4-1-1s.4-1 1-1h18c.6 0 1 .4 1 1s-.4 1-1 1Z"/></symbol><symbol xmlns="http://www.w3.org/2000/svg" id="minus" fill="none" viewBox="0 0 24 24"><path fill="currentColor" d="M19 11a1 1 0 1 1 0 2H5a1 1 0 1 1 0-2h14Z"/></symbol><symbol xmlns="http://www.w3.org/2000/svg" id="plus" fill="none" viewBox="0 0 24 24"><path fill="currentColor" d="M19 11h-6V5a1 1 0 0 0-2 0v6H5a1 1 0 0 0 0 2h6v6a1 1 0 0 0 2 0v-6h6a1 1 0 0 0 0-2Z"/></symbol><symbol xmlns="http://www.w3.org/2000/svg" id="right" fill="none" viewBox="0 0 24 24"><path fill="currentColor" d="M10.381 19.75a.678.678 0 0 1-.95 0l-.891-.878a.655.655 0 0 1 0-.935l8.287-8.166 1.367 1.346a.655.655 0 0 1 0 .936l-7.813 7.698Z"/><path fill="currentColor" d="M10.319 3.353a.679.679 0 0 0-.95 0l-.892.879a.655.655 0 0 0 0 .936l8.288 8.165 1.366-1.346a.655.655 0 0 0 0-.936L10.32 3.353Z"/></symbol><symbol xmlns="http://www.w3.org/2000/svg" id="search" fill="none" viewBox="0 0 24 24"><path fill="currentColor" fill-rule="evenodd" d="M4.774 10.983a6.217 6.217 0 0 1 6.21-6.209 6.217 6.217 0 0 1 6.208 6.21 6.217 6.217 0 0 1-6.209 6.208 6.217 6.217 0 0 1-6.209-6.209ZM20.74 20.74a.887.887 0 0 0 0-1.254l-3.526-3.526a7.937 7.937 0 0 0 1.752-4.977c0-4.402-3.58-7.983-7.983-7.983C6.581 3 3 6.58 3 10.983c0 4.402 3.58 7.983 7.983 7.983a7.933 7.933 0 0 0 4.977-1.752l3.526 3.526a.887.887 0 0 0 1.254 0Z" clip-rule="evenodd"/></symbol><symbol xmlns="http://www.w3.org/2000/svg" id="tel" fill="none" viewBox="0 0 24 24"><path fill="currentColor" d="m20.254 16.307-1.803-1.803a2.55 2.55 0 0 0-4.302 1.304c-2.973-.556-5.864-3.436-6.044-6.01a2.55 2.55 0 0 0 1.334-4.307L7.637 3.69a2.55 2.55 0 0 0-3.605 0c-5.408 5.408 10.815 21.63 16.222 16.223a2.549 2.549 0 0 0 0-3.605Z"/></symbol><symbol xmlns="http://www.w3.org/2000/svg" id="up" fill="none" viewBox="0 0 24 24"><path fill="currentColor" d="M20.532 15.287a.679.679 0 0 1 0 .95l-.878.892a.655.655 0 0 1-.936 0L10.552 8.84l1.346-1.366a.655.655 0 0 1 .936 0l7.698 7.812Z"/><path fill="currentColor" d="M4.135 15.35a.679.679 0 0 0 0 .95l.878.891a.655.655 0 0 0 .936 0l8.166-8.287-1.347-1.367a.655.655 0 0 0-.936 0L4.135 15.35Z"/></symbol><symbol xmlns="http://www.w3.org/2000/svg" id="user" fill="none" viewBox="0 0 30 30"><path fill="currentColor" fill-rule="evenodd" d="m11.668 18.71-.26.044c-2.41.396-4.22 2.556-4.22 5.136 0 .814.63 1.422 1.347 1.422h12.93c.716 0 1.348-.608 1.348-1.423 0-2.579-1.812-4.738-4.22-5.135l-.26-.044a20.476 20.476 0 0 0-6.665 0Zm6.97-1.85.26.044c3.357.553 5.79 3.532 5.79 6.986 0 1.793-1.414 3.297-3.223 3.297H8.535c-1.809 0-3.223-1.505-3.223-3.298 0-3.453 2.433-6.433 5.79-6.985l.26-.044a22.351 22.351 0 0 1 7.275 0ZM15 4.688c-2.334 0-4.166 1.816-4.166 3.984 0 2.17 1.832 3.984 4.166 3.984 2.334 0 4.166-1.816 4.166-3.985 0-2.168-1.832-3.983-4.166-3.983ZM8.959 8.671c0-3.268 2.737-5.86 6.041-5.86 3.304 0 6.041 2.592 6.041 5.86 0 3.27-2.737 5.86-6.041 5.86-3.304 0-6.041-2.592-6.041-5.86Z" clip-rule="evenodd"/></symbol></svg>