<svg width="24" height="24" viewBox="0 0 24 24" fill="none" xmlns="http://www.w3.org/2000/svg">
<path d="M19.1266 11.6961C19.1266 11.4625 19.0287 11.2365 18.8554 11.0708L13.9059 6.1213C13.71 5.93297 13.5066 5.8501 13.2957 5.8501C12.8135 5.8501 12.467 6.1891 12.467 6.64865C12.467 6.88972 12.5649 7.09312 12.7156 7.24379L14.4106 8.96143L16.5954 10.9578L14.8476 10.8523H5.71701C5.21226 10.8523 4.86572 11.1989 4.86572 11.6961C4.86572 12.1858 5.21226 12.5323 5.71701 12.5323H14.8476L16.5954 12.4268L14.4106 14.4232L12.7156 16.1408C12.5649 16.2915 12.467 16.4949 12.467 16.736C12.467 17.1955 12.8135 17.5345 13.2957 17.5345C13.5066 17.5345 13.71 17.4517 13.8908 17.2784L18.8554 12.3138C19.0287 12.1481 19.1266 11.9221 19.1266 11.6961Z" fill="#EEEEEE"/>
</svg>
