<svg width="24" height="24" viewBox="0 0 24 24" fill="none" xmlns="http://www.w3.org/2000/svg">
<path d="M16.1947 4.5H1.5C1.30109 4.5 1.11032 4.42098 0.96967 4.28033C0.829018 4.13968 0.75 3.94891 0.75 3.75C0.75 3.55109 0.829018 3.36032 0.96967 3.21967C1.11032 3.07902 1.30109 3 1.5 3H16.1947C16.3937 3 16.5844 3.07902 16.7251 3.21967C16.8657 3.36032 16.9447 3.55109 16.9447 3.75C16.9447 3.94891 16.8657 4.13968 16.7251 4.28033C16.5844 4.42098 16.3937 4.5 16.1947 4.5ZM8.51625 8.625H1.5C1.30109 8.625 1.11032 8.54598 0.96967 8.40533C0.829018 8.26468 0.75 8.07391 0.75 7.875C0.75 7.67609 0.829018 7.48532 0.96967 7.34467C1.11032 7.20402 1.30109 7.125 1.5 7.125H8.51625C8.71516 7.125 8.90593 7.20402 9.04658 7.34467C9.18723 7.48532 9.26625 7.67609 9.26625 7.875C9.26625 8.07391 9.18723 8.26468 9.04658 8.40533C8.90593 8.54598 8.71516 8.625 8.51625 8.625ZM8.51625 12.75H1.5C1.30109 12.75 1.11032 12.671 0.96967 12.5303C0.829018 12.3897 0.75 12.1989 0.75 12C0.75 11.8011 0.829018 11.6103 0.96967 11.4697C1.11032 11.329 1.30109 11.25 1.5 11.25H8.51625C8.71516 11.25 8.90593 11.329 9.04658 11.4697C9.18723 11.6103 9.26625 11.8011 9.26625 12C9.26625 12.1989 9.18723 12.3897 9.04658 12.5303C8.90593 12.671 8.71516 12.75 8.51625 12.75ZM8.51625 16.875H1.5C1.30109 16.875 1.11032 16.796 0.96967 16.6553C0.829018 16.5147 0.75 16.3239 0.75 16.125C0.75 15.9261 0.829018 15.7353 0.96967 15.5947C1.11032 15.454 1.30109 15.375 1.5 15.375H8.51625C8.71516 15.375 8.90593 15.454 9.04658 15.5947C9.18723 15.7353 9.26625 15.9261 9.26625 16.125C9.26625 16.3239 9.18723 16.5147 9.04658 16.6553C8.90593 16.796 8.71516 16.875 8.51625 16.875ZM16.7887 21H1.5C1.30109 21 1.11032 20.921 0.96967 20.7803C0.829018 20.6397 0.75 20.4489 0.75 20.25C0.75 20.0511 0.829018 19.8603 0.96967 19.7197C1.11032 19.579 1.30109 19.5 1.5 19.5H16.7887C16.9877 19.5 17.1784 19.579 17.3191 19.7197C17.4597 19.8603 17.5387 20.0511 17.5387 20.25C17.5387 20.4489 17.4597 20.6397 17.3191 20.7803C17.1784 20.921 16.9877 21 16.7887 21ZM22.5 18.3502C22.4015 18.3504 22.3039 18.331 22.213 18.2933C22.122 18.2556 22.0393 18.2002 21.9697 18.1305L19.1257 15.2865C19.0541 15.2173 18.997 15.1346 18.9577 15.0431C18.9184 14.9515 18.8977 14.8531 18.8968 14.7536C18.8959 14.654 18.9149 14.5552 18.9526 14.463C18.9903 14.3709 19.046 14.2871 19.1165 14.2167C19.1869 14.1463 19.2706 14.0906 19.3628 14.0529C19.455 14.0152 19.5537 13.9962 19.6533 13.9971C19.7529 13.9979 19.8513 14.0186 19.9428 14.0579C20.0343 14.0972 20.1171 14.1544 20.1863 14.226L23.0303 17.07C23.1351 17.1749 23.2065 17.3085 23.2354 17.454C23.2644 17.5994 23.2495 17.7502 23.1928 17.8872C23.136 18.0243 23.0399 18.1414 22.9166 18.2238C22.7933 18.3062 22.6483 18.3502 22.5 18.3502Z" fill="#EEEEEE"/>
<path d="M16.1948 16.9364C15.4536 16.9381 14.7193 16.7931 14.0343 16.5099C13.3493 16.2268 12.727 15.811 12.2033 15.2864C11.1376 14.2199 10.5496 12.8024 10.5496 11.2949C10.5496 9.78741 11.1376 8.36991 12.2033 7.30341C13.2691 6.23691 14.6866 5.64966 16.1948 5.64966C17.7031 5.64966 19.1198 6.23691 20.1863 7.30341C21.2528 8.36916 21.8401 9.78591 21.8401 11.2949C21.8401 12.8039 21.2528 14.2199 20.1863 15.2864C19.6623 15.8106 19.04 16.2262 18.3551 16.5094C17.6701 16.7925 16.936 16.9376 16.1948 16.9364ZM16.1948 7.14966C15.0878 7.14966 14.0468 7.58091 13.2646 8.36466C12.4823 9.14841 12.0496 10.1879 12.0496 11.2949C12.0482 11.8395 12.1548 12.379 12.3634 12.8821C12.572 13.3853 12.8783 13.842 13.2646 14.2259C14.0425 15.0019 15.0964 15.4377 16.1952 15.4377C17.294 15.4377 18.3479 15.0019 19.1258 14.2259C19.5121 13.842 19.8184 13.3853 20.027 12.8821C20.2355 12.379 20.3422 11.8395 20.3408 11.2949C20.3422 10.7503 20.2355 10.2108 20.027 9.70768C19.8184 9.20456 19.5121 8.74782 19.1258 8.36391C18.7418 7.97774 18.2851 7.67158 17.782 7.46316C17.2788 7.25473 16.7394 7.14817 16.1948 7.14966Z" fill="#EEEEEE"/>
</svg>
