<svg width="30" height="30" viewBox="0 0 30 30" fill="none" xmlns="http://www.w3.org/2000/svg">
<path fill-rule="evenodd" clip-rule="evenodd" d="M25.7676 7.0613C25.8922 7.17044 25.9939 7.30327 26.0668 7.45207C26.1397 7.60088 26.1822 7.76268 26.192 7.92808C26.2018 8.09347 26.1786 8.25916 26.1237 8.41551C26.0689 8.57186 25.9835 8.71574 25.8726 8.8388L12.7301 23.425C12.6186 23.5486 12.4836 23.6486 12.3329 23.7193C12.1823 23.7899 12.0191 23.8298 11.8528 23.8366C11.6866 23.8433 11.5206 23.8168 11.3648 23.7586C11.2089 23.7004 11.0662 23.6116 10.9451 23.4975L3.34007 16.3388C3.11192 16.121 2.97378 15.8255 2.95295 15.5107C2.93212 15.1959 3.03011 14.8848 3.22757 14.6388C3.33415 14.5054 3.46672 14.3951 3.61724 14.3145C3.76776 14.234 3.93308 14.1848 4.10317 14.1701C4.27326 14.1554 4.44457 14.1754 4.6067 14.2288C4.76883 14.2823 4.9184 14.3682 5.04632 14.4813L10.9463 19.7888C11.1927 20.0105 11.517 20.1253 11.848 20.108C12.179 20.0906 12.4895 19.9426 12.7113 19.6963L24.0151 7.16255C24.2351 6.9186 24.5423 6.77107 24.8703 6.75189C25.1983 6.73271 25.5206 6.84341 25.7676 7.06005V7.0613Z" fill="#EEEEEE"/>
</svg>
