<svg width="30" height="30" viewBox="0 0 30 30" fill="none" xmlns="http://www.w3.org/2000/svg">
<path fill-rule="evenodd" clip-rule="evenodd" d="M6.25011 21.9825C6.01556 22.2171 5.88379 22.5352 5.88379 22.8669C5.88379 23.1986 6.01556 23.5167 6.25011 23.7513C6.48466 23.9858 6.80278 24.1176 7.13448 24.1176C7.46619 24.1176 7.78431 23.9858 8.01886 23.7513L15.0001 16.7675L21.9826 23.75C22.2184 23.9777 22.5341 24.1037 22.8619 24.1009C23.1896 24.098 23.5031 23.9666 23.7349 23.7348C23.9666 23.5031 24.0981 23.1895 24.101 22.8618C24.1038 22.5341 23.9778 22.2183 23.7501 21.9825L16.7676 15L23.7501 8.01755C23.9845 7.783 24.1161 7.46494 24.116 7.13336C24.1159 6.80177 23.984 6.48381 23.7495 6.24942C23.5149 6.01504 23.1969 5.88343 22.8653 5.88355C22.5337 5.88366 22.2157 6.0155 21.9814 6.25005L15.0001 13.2325L8.01761 6.25005C7.78186 6.02235 7.4661 5.89636 7.13836 5.89921C6.81061 5.90205 6.4971 6.03351 6.26534 6.26527C6.03358 6.49703 5.90211 6.81055 5.89927 7.1383C5.89642 7.46604 6.02241 7.7818 6.25011 8.01755L13.2326 15L6.25011 21.9825Z" fill="#EEEEEE"/>
</svg>
