<svg width="21" height="12" viewBox="0 0 21 12" fill="none" xmlns="http://www.w3.org/2000/svg">
    <path d="M9.4159 0.325817L0.326313 9.41557C0.115912 9.62581 0 9.90645 0 10.2057C0 10.5049 0.115912 10.7856 0.326313 10.9958L0.995544 11.6652C1.43162 12.1008 2.14038 12.1008 2.57579 11.6652L10.2087 4.03233L17.85 11.6737C18.0604 11.8839 18.3409 12 18.64 12C18.9394 12 19.2199 11.8839 19.4305 11.6737L20.0995 11.0043C20.3099 10.7939 20.4258 10.5134 20.4258 10.2142C20.4258 9.91492 20.3099 9.63428 20.0995 9.42404L11.0016 0.325817C10.7906 0.115084 10.5088 -0.000660896 10.2092 2.86102e-06C9.90844 -0.000660896 9.6268 0.115084 9.4159 0.325817Z"
          fill="white"/>
</svg>